<svg width="55" height="55" viewBox="0 0 55 55" fill="none" xmlns="http://www.w3.org/2000/svg">
<rect width="29.3518" height="1.86569" rx="0.932846" transform="matrix(0.699905 -0.714236 0.716059 0.69804 4.64355 35.0361)" fill="#14ACB6"/>
<rect width="29.3518" height="1.86569" rx="0.932846" transform="matrix(0.699905 -0.714236 0.716059 0.69804 11.9961 41.9917)" fill="#14ACB6"/>
<rect width="29.3518" height="1.86569" rx="0.932846" transform="matrix(0.699905 -0.714235 0.716059 0.69804 19.3887 48.9087)" fill="#14ACB6"/>
<rect width="20.5214" height="1.24379" rx="0.621897" transform="matrix(0.699905 -0.714236 0.716059 0.69804 11.3457 35.4229)" fill="#14ACB6"/>
<rect width="20.5214" height="1.24379" rx="0.621897" transform="matrix(0.699905 -0.714236 0.716059 0.69804 18.7383 42.3398)" fill="#14ACB6"/>
<path d="M40.4383 15.4961C40.201 15.4988 39.9627 15.4113 39.7797 15.2329C36.7711 12.3 32.4975 11.0194 28.3474 11.8108C27.8427 11.9045 27.3589 11.5776 27.263 11.0761C27.1672 10.5747 27.4968 10.0906 27.9995 9.99459C32.7457 9.0914 37.6335 10.5551 41.0756 13.9106C41.4415 14.2673 41.4483 14.853 41.0906 15.218C40.9117 15.4005 40.6755 15.4934 40.4383 15.4961Z" fill="#14ACB6"/>
<path d="M44.1614 38.3753C43.9242 38.378 43.6859 38.2905 43.5029 38.1121C43.1369 37.7554 43.1302 37.1697 43.4879 36.8047C46.8056 33.4195 48.6029 28.9481 48.5486 24.2143C48.4943 19.4804 46.5949 15.0512 43.2005 11.7422C36.1934 4.91179 24.9215 5.04001 18.0725 12.0289C17.7148 12.3942 17.1276 12.4009 16.762 12.0438C16.3957 11.6871 16.389 11.1018 16.747 10.7368C24.3099 3.01866 36.7584 2.87702 44.4963 10.4202C48.2447 14.0743 50.3422 18.9656 50.4022 24.1931C50.4621 29.4206 48.4773 34.3585 44.8137 38.0972C44.6349 38.2797 44.3987 38.3726 44.1614 38.3753Z" fill="#14ACB6"/>
</svg>
